<svg xmlns="http://www.w3.org/2000/svg" width="301.089" height="294.403" viewBox="0 0 301.089 294.403"><defs><style>.a{opacity:0.05;}</style></defs><g class="a" transform="translate(-44.904 -62.16)"><path d="M52.683,163.358a9.777,9.777,0,0,0,15.29,6.708c38.381-25.944,85.919-29.4,127.539-8.41,27.637,13.942,53.81,19.285,78.874,16.005,23.6-3.091,46.207-13.827,68.122-32.257a9.924,9.924,0,0,0,3.4-8.845l-7.637-58.315a9.8,9.8,0,0,0-15.627-6.494c-19.022,13.991-38.578,22.3-58.858,24.957-25.064,3.28-51.246-2.063-78.882-16.005C140.024,58.055,88.261,63.867,48.524,95.622a9.9,9.9,0,0,0-3.535,8.993Zm285.591,97.715a9.8,9.8,0,0,0-15.627-6.494c-19.022,13.991-38.578,22.3-58.858,24.957-25.064,3.28-51.246-2.063-78.882-16.005C140.024,240.884,88.261,246.7,48.524,278.459a9.879,9.879,0,0,0-3.535,8.985l7.694,58.743a9.777,9.777,0,0,0,15.29,6.708c38.381-25.943,85.919-29.4,127.539-8.409,27.637,13.942,53.81,19.285,78.874,16.005,23.6-3.083,46.207-13.827,68.122-32.248a9.947,9.947,0,0,0,3.4-8.853Z" transform="translate(0 -4.863)"/></g></svg>